<svg id="Layer_1" data-name="Layer 1" xmlns="http://www.w3.org/2000/svg" viewBox="0 0 618.43 221.9"><defs><style>.cls-1{fill:#96a73a;}.cls-2{fill:#6a7072;}</style></defs><title>SNAP_acronym_color_horiz</title><path class="cls-1" d="M11,114.63A11.07,11.07,0,0,1,1.26,98.44L30.2,43.22a11,11,0,0,1,9.12-5.9,11.16,11.16,0,0,1,9.76,4.74L60.44,58.5,80.7,7a11,11,0,0,1,19.64-1.82l23.33,37.25,16.59-17.25A11.05,11.05,0,1,1,156.2,40.51L129.79,68a11,11,0,0,1-17.33-1.8L93.24,35.49,73.42,85.87a11.05,11.05,0,0,1-19.37,2.24L41.29,69.66l-20.45,39a11.06,11.06,0,0,1-9.8,5.93Z"/><path class="cls-2" d="M117.8,143.23a29.58,29.58,0,1,1-29.57-29.59A29.58,29.58,0,0,1,117.8,143.23Z"/><path class="cls-2" d="M83.6,221.9A78.9,78.9,0,0,1,4.78,143.09a11.05,11.05,0,1,1,22.1,0A56.78,56.78,0,0,0,83.6,199.81c30.81,0,51.81-12.94,62.42-38.43,8-19.31.93-50.28-5-60.77A11,11,0,1,1,160.3,89.77c9.28,16.47,16.8,54.48,6.13,80.1-14,33.55-43.39,52-82.83,52Z"/><path class="cls-2" d="M268.89,112.58a7.65,7.65,0,0,1-2.07,2.49,4.7,4.7,0,0,1-2.73.77,7.06,7.06,0,0,1-3.71-1.26c-1.33-.85-2.92-1.78-4.77-2.81a39,39,0,0,0-6.47-2.82,27.36,27.36,0,0,0-8.76-1.26,26.33,26.33,0,0,0-8,1.1,16.62,16.62,0,0,0-5.74,3.06,12.13,12.13,0,0,0-3.46,4.68,15.4,15.4,0,0,0-1.14,6,10.37,10.37,0,0,0,2.32,6.92,19.35,19.35,0,0,0,6.15,4.73,57.12,57.12,0,0,0,8.72,3.5c3.26,1,6.6,2.14,10,3.3a94.71,94.71,0,0,1,10,4.08,34.55,34.55,0,0,1,8.72,5.86,26.77,26.77,0,0,1,6.15,8.68,30.1,30.1,0,0,1,2.32,12.46A40.56,40.56,0,0,1,273.74,187a34.49,34.49,0,0,1-8,12.14,37.58,37.58,0,0,1-12.84,8.15,47.26,47.26,0,0,1-17.35,3,55.44,55.44,0,0,1-11.08-1.1A57.86,57.86,0,0,1,214,206a56.61,56.61,0,0,1-9.41-4.89,45.2,45.2,0,0,1-7.82-6.36l6.44-10.51a6.87,6.87,0,0,1,2.12-1.91,5.27,5.27,0,0,1,2.77-.77,7.76,7.76,0,0,1,4.4,1.67c1.57,1.11,3.44,2.35,5.62,3.7a43.87,43.87,0,0,0,7.61,3.71,29.4,29.4,0,0,0,10.47,1.67q9.38,0,14.51-4.44t5.13-12.75a11.9,11.9,0,0,0-2.32-7.58,19,19,0,0,0-6.15-4.93,46.62,46.62,0,0,0-8.72-3.38q-4.89-1.38-9.94-3a86.43,86.43,0,0,1-9.94-3.91,32.24,32.24,0,0,1-8.72-6,27.12,27.12,0,0,1-6.15-9.16,34.92,34.92,0,0,1-2.32-13.57,32,32,0,0,1,2.57-12.55,32.36,32.36,0,0,1,7.45-10.83,36.53,36.53,0,0,1,12.06-7.58,44.27,44.27,0,0,1,16.45-2.85,55,55,0,0,1,19.23,3.26,43.35,43.35,0,0,1,15,9.12Z"/><path class="cls-2" d="M308.25,91.28a5.6,5.6,0,0,1,1.79.49,5.73,5.73,0,0,1,1.51,1,18.19,18.19,0,0,1,1.63,1.84l61.75,78.86q-.24-2.85-.41-5.62c-.1-1.85-.16-3.56-.16-5.13V91.15h19.31V209H382.43a9.76,9.76,0,0,1-4.36-.86,10.17,10.17,0,0,1-3.38-2.89l-61.51-78.45c.16,1.74.28,3.46.37,5.17s.12,3.27.12,4.68V209H294.36V91.15h11.49A18.64,18.64,0,0,1,308.25,91.28Z"/><path class="cls-2" d="M522.14,209H505.19a7.22,7.22,0,0,1-4.64-1.43,8.86,8.86,0,0,1-2.69-3.54l-8.8-24h-48.8l-8.8,24a7.84,7.84,0,0,1-2.53,3.42,7.06,7.06,0,0,1-4.64,1.55H407.18L453.54,91.15h22.32Zm-76.26-44.48h37.56L469.1,125.29q-1.07-2.61-2.2-6.15t-2.28-7.7q-1.14,4.16-2.24,7.74t-2.16,6.27Z"/><path class="cls-2" d="M556.27,167.49V209H534.35V91.15h38.3a67.48,67.48,0,0,1,20.45,2.77,39.42,39.42,0,0,1,14.25,7.74,30.71,30.71,0,0,1,8.35,11.9,40.94,40.94,0,0,1,2.73,15.15,41.87,41.87,0,0,1-2.85,15.68A32.58,32.58,0,0,1,607,156.66a39.86,39.86,0,0,1-14.3,8,63.87,63.87,0,0,1-20.08,2.85Zm0-17.11h16.38a33.22,33.22,0,0,0,10.51-1.5,20.05,20.05,0,0,0,7.45-4.32,17.59,17.59,0,0,0,4.44-6.85,26.1,26.1,0,0,0,1.47-9,23.67,23.67,0,0,0-1.47-8.55,16.9,16.9,0,0,0-4.4-6.52,19.74,19.74,0,0,0-7.41-4.12,35.44,35.44,0,0,0-10.59-1.42H556.27Z"/></svg>